<svg id="Layer_1" xmlns="http://www.w3.org/2000/svg" x="0px" y="0px"
	 width="100%" viewBox="0 0 120 121">
<path fill="#E8E5DE" opacity="1.000000" stroke="none"
	d="
M68.000000,122.000000
	C45.333332,122.000000 23.166666,122.000000 1.000000,122.000000
	C1.000000,81.666664 1.000000,41.333332 1.000000,1.000000
	C41.000000,1.000000 81.000000,1.000000 121.000000,1.000000
	C121.000000,41.333332 121.000000,81.666664 121.000000,122.000000
	C103.500000,122.000000 86.000000,122.000000 68.000000,122.000000
M59.935749,71.145203
	C61.701279,75.192772 63.598949,79.188721 65.204231,83.298882
	C68.337029,91.320076 74.981445,95.042938 82.475624,92.783905
	C89.171471,90.765518 93.194458,83.908508 91.659737,77.129997
	C89.887024,69.300346 83.545303,65.310028 75.018806,66.736443
	C71.245659,67.367653 67.506218,68.210846 63.722111,68.752708
	C63.251820,68.820045 62.600567,67.623650 62.654255,66.760269
	C65.520454,63.328236 68.577995,60.035931 71.209419,56.432457
	C75.495567,50.563007 74.611465,43.065948 69.390976,38.464794
	C64.014206,33.725906 56.704178,33.739712 51.317455,38.498943
	C46.079048,43.127129 45.170219,50.602180 49.436611,56.446178
	C51.663391,59.496376 54.383347,62.186527 57.139210,65.700233
	C56.788158,66.798325 62.159130,68.135971 56.270504,68.737030
	C52.364330,68.015907 48.473080,67.197655 44.548775,66.594505
	C37.093868,65.448715 30.842106,69.595596 29.136528,76.685570
	C27.428705,83.784882 31.244329,90.598907 38.175819,92.828133
	C44.912258,94.994629 52.090218,91.643822 54.843651,84.756683
	C56.559952,80.463715 57.837978,75.995514 59.935749,71.145203
z"/>
<path fill="#1C1D1E" opacity="1.000000" stroke="none"
	d="
M56.999691,69.032753
	C62.159130,68.135971 56.788158,66.798325 57.383026,65.360947
	C59.095615,65.685387 60.564392,66.349113 62.033169,67.012833
	C62.600567,67.623650 63.251820,68.820045 63.722111,68.752708
	C67.506218,68.210846 71.245659,67.367653 75.018806,66.736443
	C83.545303,65.310028 89.887024,69.300346 91.659737,77.129997
	C93.194458,83.908508 89.171471,90.765518 82.475624,92.783905
	C74.981445,95.042938 68.337029,91.320076 65.204231,83.298882
	C63.598949,79.188721 61.701279,75.192772 59.500023,71.132408
	C58.376099,70.423996 57.687893,69.728371 56.999691,69.032753
z"/>
<path fill="#1C1C1D" opacity="1.000000" stroke="none"
	d="
M56.635098,68.884888
	C57.687893,69.728371 58.376099,70.423996 59.188496,71.362785
	C57.837978,75.995514 56.559952,80.463715 54.843651,84.756683
	C52.090218,91.643822 44.912258,94.994629 38.175819,92.828133
	C31.244329,90.598907 27.428705,83.784882 29.136528,76.685570
	C30.842106,69.595596 37.093868,65.448715 44.548775,66.594505
	C48.473080,67.197655 52.364330,68.015907 56.635098,68.884888
z"/>
<path fill="#1C1D1E" opacity="1.000000" stroke="none"
	d="
M62.343712,66.886551
	C60.564392,66.349113 59.095615,65.685387 57.253696,65.030487
	C54.383347,62.186527 51.663391,59.496376 49.436611,56.446178
	C45.170219,50.602180 46.079048,43.127129 51.317455,38.498943
	C56.704178,33.739712 64.014206,33.725906 69.390976,38.464794
	C74.611465,43.065948 75.495567,50.563007 71.209419,56.432457
	C68.577995,60.035931 65.520454,63.328236 62.343712,66.886551
z"/>
</svg>
